<svg version="1.2" xmlns="http://www.w3.org/2000/svg" viewBox="0 0 1537 291" width="1537" height="291">
	<title>logo-eiffage-svg</title>
	<style>
		.s0 { fill: #ff0000 } 
		.s1 { fill: #000000 } 
	</style>
	<g id="Symbols">
		<g id="FUNCTIONS">
			<g id="FUNCTIONS/Logo">
				<g id="LOGO">
					<path id="Fill-1" class="s0" d="m0 239.5h206v47.9h-206z"/>
					<path id="Fill-2" class="s0" d="m0 159.7h206v47.9h-206z"/>
					<path id="Fill-3" class="s0" d="m0 79.8h206v47.9h-206z"/>
					<path id="Fill-4" class="s0" d="m74.5 0l-47.5 47.9h210.7v212.3l47.6-47.9v-212.3z"/>
					<g id="Group-20">
						<path id="Fill-5" fill-rule="evenodd" class="s1" d="m1231.6 199.3c0 25.8 5.9 67.5 48.2 67.5 6.4 0 11.6-0.7 16.9-2.3l9.7-69.1h53.7l-11.2 80.4c-25.4 10.4-47.4 14.5-74 14.5-60.8 0-97.7-30.9-97.7-90.4 0-62.6 43.1-123 127.6-123 22.2 0 40.8 4.7 60.3 14.3l-6.6 24.9c-12.7-9.7-32.2-16.7-50.8-16.7-49.2 0-76.1 51.4-76.1 99.9zm-647.1-119.5h53.8l-29.1 207.6h-53.8zm-167.1 0h119.9l-3.2 22.3h-66.1l-9.4 67.5h61.3l-2.8 20h-61.3l-10.6 75.4h66.1l-3.1 22.3h-119.9zm1050.3 22.4l-9.4 67.5h61.3l-2.8 20h-61.3l-10.6 75.3h66.1l-3.1 22.4h-119.9l29.1-207.6h119.9l-3.2 22.4zm-773.5-22.4h119.9l-3.1 22.4h-66.1l-9.5 67.5h61.3l-2.8 20h-61.3l-13.7 97.7h-53.8zm263.5 109.8h-61.3l-13.7 97.7h-53.8l29.1-207.5h119.9l-3.1 22.3h-66.1l-9.5 67.5h61.3zm148.5-109.9l43.2 207.7h-50.8l-14-66.3h-65.5l-37.3 66.3h-29.2l116.5-207.7zm-25.7 121.5l-13.7-64.7-36.4 64.7z"/>
					</g>
				</g>
			</g>
		</g>
	</g>
</svg>